<?xml version="1.0" encoding="UTF-8"?>
<svg id="Calque_2" data-name="Calque 2" xmlns="http://www.w3.org/2000/svg" viewBox="0 0 1152.53 251.96">
  <defs>
    <style>
      .cls-1 {
        fill: #1f3260;
      }
    </style>
  </defs>
  <g id="Calque_1-2" data-name="Calque 1">
    <g>
      <g>
        <path class="cls-1" d="M245.71,65.93c0,1.53-.02,1.53-.02,3.06s-.04,1.53-.04,3.06-.09,1.53-.09,3.06,0,1.53,0,3.06-.05,1.53-.05,3.06-.03,1.53-.03,3.06-.03,1.53-.03,3.06-.11,1.53-.11,3.06.21,1.53.21,3.06-.07,1.53-.07,3.06.09,1.53.09,3.06.13,1.53.13,3.06-.12,1.53-.12,3.06-.12,1.53-.12,3.06.11,1.53.11,3.06,0,1.53,0,3.06.1,1.53.1,3.06-.18,1.53-.18,3.06.12,1.53.12,3.06-.02,1.53-.02,3.06.02,1.53.02,3.07.02,1.53.02,3.06-.3,1.53-.3,3.07.4,1.53.4,3.06-.39,1.53-.39,3.07.08,1.53.08,3.06.03,1.53.03,3.07.02,1.53.02,3.07.08,1.53.08,3.07-.1,1.53-.1,3.06.04,1.53.04,3.07-.04,1.53-.04,3.07-.09,1.53-.09,3.07.03,1.54.03,3.07.32,1.54.32,3.07c0,1.08-.23,2.08-.14,3,.11,1.09.4,2.05.64,2.93.28,1.05.5,2.03.94,2.84.49.91,1.22,1.6,1.9,2.32s1.31,1.48,2.15,2.09c.76.55,1.65.83,2.38,1.26.82.48,1.51,1.06,2.2,1.52.79.53,1.61.97,2.07,1.69s.59,1.56.59,2.6c0,1.23-.18,2.42-.97,3.3-.64.71-1.67,1.29-3.09,1.62-.94.22-2.11.38-3.48.38-1.02,0-2.12-.36-3.3-.41-1.06-.04-2.18.26-3.32.2s-2.18-.33-3.29-.39-2.21-.26-3.3-.29-2.24.16-3.32.16-2.03.03-3,.06c-1.02.03-2.02-.07-3-.02s-1.99.24-2.99.29-1.98-.06-3-.01-1.96.19-2.99.21c-.96.02-1.96-.11-3-.11-1.28,0-2.38.21-3.25,0-1.3-.33-2.02-1.15-2.61-1.84-.72-.84-.97-1.79-.97-2.91,0-1.25.13-2.36.75-3.19.65-.88,1.76-1.34,2.68-1.96.97-.65,1.82-1.43,2.62-2.02.82-.59,1.53-1.16,2.17-1.75.73-.68,1.54-1.21,2.07-1.91.58-.78,1.01-1.63,1.38-2.46s.5-1.79.7-2.71.41-1.79.49-2.75c.07-.89,0-1.83,0-2.8,0-1.51.06-1.51.06-3.01s.02-1.51.02-3.01.12-1.51.12-3.01-.14-1.51-.14-3.01-.04-1.51-.04-3.01.1-1.51.1-3.01-.12-1.51-.12-3.01,0-1.51,0-3.01.02-1.51.02-3.01.16-1.51.16-3.01-.15-1.51-.15-3.01.18-1.51.18-3.01.03-1.51.03-3.01.03-1.51.03-3.01-.2-1.51-.2-3.01.12-1.51.12-3.01.01-1.51.01-3.01.05-1.51.05-3.01-.29-1.51-.29-3.01.21-1.51.21-3.01-.19-1.51-.19-3.01.26-1.51.26-3.01-.02-1.51-.02-3.01-.06-1.5-.06-3.01-.3-1.51-.3-3.01.13-1.51.13-3.02-.12-1.51-.12-3.01.32-1.51.32-3.02-.2-1.51-.2-3.01.21-1.51.21-3.02-.11-1.51-.11-3.01-.24-1.51-.24-3.02.23-1.51.23-3.02.19-1.51.19-3.02-.41-1.51-.41-3.01.31-1.51.31-3.02-.26-1.51-.26-3.02.29-1.51.29-3.02-.11-1.51-.11-3.02-.03-1.51-.03-3.02c0-1.22-.39-2.22-.76-3.17-.41-1.06-.7-2.17-1.49-2.95s-1.87-1.08-2.91-1.61c-.93-.48-1.91-.96-3.02-1.32-1.14-.45-2.2-1.16-3.09-1.91-.98-.83-1.87-1.8-1.87-3.06,0-1.12.44-2.05,1.01-2.81s1.4-1.22,2.36-1.76c.78-.43,1.63-.95,2.64-1.34.86-.34,1.85-.51,2.83-.87.88-.32,1.7-.95,2.66-1.32.97-.39,1.96-.62,2.83-1,.97-.41,1.98-.61,2.84-1,.97-.44,1.77-1.1,2.62-1.5.97-.46,1.85-.95,2.68-1.35.99-.47,1.89-.89,2.73-1.26,1.02-.45,2.06-.5,2.91-.77,1.05-.33,1.94-.51,2.87-.51,1,0,1.83.03,2.58.3.88.31,1.63.71,2.18,1.4.5.63.95,1.41,1.17,2.38.18.77.37,1.67.37,2.67,0,1.07-.21,2.08-.24,3.1s-.1,2.01-.15,3.09c-.05.96.02,1.98-.04,3.1-.05.95-.34,1.96-.39,3.08-.04.95-.05,1.98-.09,3.1-.04.96-.12,1.99-.15,3.09-.03.97.14,2,.12,3.1-.02.98-.2,2.01-.22,3.09-.02.98.27,2.02.26,3.1-.01.99-.13,2.02-.13,3.1,0,.99.09,2.03.09,3.1,0,1,0,2.03,0,3.1Z"/>
        <path class="cls-1" d="M328.33,75.4c1.02,0,2.03-.18,3.04-.13s2.04,0,3.05.1,2,.41,3,.56,2.02.24,3.01.44,1.93.67,2.91.91,2.02.27,2.99.56,1.98.49,2.93.82,1.77,1.05,2.71,1.43,1.97.56,2.88.99,1.87.8,2.77,1.28,1.6,1.28,2.47,1.81,1.8.94,2.64,1.51,1.59,1.26,2.39,1.87,1.68,1.14,2.45,1.79,1.37,1.49,2.11,2.19,1.5,1.35,2.2,2.08,1.59,1.29,2.26,2.06,1.01,1.78,1.64,2.59,1.36,1.51,1.93,2.34,1.21,1.63,1.74,2.49.99,1.76,1.48,2.66.75,1.88,1.2,2.8,1.15,1.69,1.55,2.63.67,1.91,1.03,2.86.6,1.92.92,2.9.73,1.89,1,2.87.45,1.97.68,2.96.51,1.95.7,2.96.12,2.02.27,3.03.56,1.96.67,2.98.14,2.01.21,3.03.16,2.01.19,3.04.09,2.02.09,3.05-.17,2.05-.21,3.06.05,2.06-.02,3.07-.35,2.03-.46,3.03-.2,2.04-.35,3.04-.34,2.03-.54,3.01-.27,2.05-.52,3.03-.86,1.89-1.16,2.86-.42,2.02-.76,2.97-.6,1.97-.99,2.9-.79,1.9-1.24,2.81-1.24,1.67-1.74,2.55-.75,1.94-1.3,2.79-1.44,1.5-2.04,2.31-1.11,1.72-1.76,2.5-1.42,1.47-2.12,2.21-1.26,1.63-2,2.32-1.48,1.42-2.26,2.07-1.66,1.2-2.48,1.8-1.8.98-2.65,1.53-1.68,1.14-2.57,1.65-1.67,1.2-2.58,1.66-1.95.63-2.89,1.03-1.83.89-2.79,1.25-1.94.62-2.91.92-1.92.69-2.91.95-1.94.66-2.94.88-2.07.02-3.08.19-1.99.44-3.01.57-2.01.35-3.03.43-2.03.15-3.06.19-2.04-.08-3.06-.08-2.03.03-3.03-.01-2.01-.28-3.01-.36-2.01-.2-3-.32-2.03-.08-3.02-.25-2-.34-2.98-.56-1.93-.64-2.9-.9-2-.38-2.95-.69-1.89-.74-2.82-1.09-2-.47-2.92-.88-1.74-1.06-2.64-1.52-1.77-.98-2.64-1.49-1.72-1.05-2.57-1.6-1.77-.99-2.58-1.59-1.5-1.36-2.27-2.01-1.64-1.2-2.37-1.88-1.49-1.37-2.19-2.1-1.23-1.61-1.88-2.38-1.27-1.56-1.89-2.36-1.43-1.46-2-2.29-.9-1.82-1.43-2.69-1.12-1.68-1.6-2.57-.79-1.85-1.22-2.77-1.11-1.71-1.49-2.65-.63-1.92-.96-2.88-.46-1.97-.75-2.94-.53-1.94-.77-2.92-.74-1.89-.95-2.89-.22-2.01-.38-3.01-.17-2-.29-3.01-.43-1.98-.51-2.99-.1-2.01-.13-3.03-.25-2.01-.25-3.03.14-2.03.18-3.02.12-2.02.2-3.02.4-1.99.51-2.98.01-2.03.17-3.02.52-1.96.71-2.94.16-2.03.39-3.01.46-1.97.74-2.94.54-1.96.85-2.91.82-1.86,1.18-2.79.66-1.92,1.06-2.83.99-1.77,1.43-2.67.89-1.81,1.38-2.69,1.12-1.68,1.65-2.53.96-1.79,1.54-2.61,1.3-1.54,1.93-2.33,1.06-1.75,1.72-2.5,1.58-1.28,2.29-2,1.39-1.46,2.13-2.13,1.45-1.4,2.23-2.04,1.54-1.3,2.36-1.89,1.65-1.16,2.5-1.7,1.78-.94,2.66-1.44,1.66-1.17,2.56-1.61,1.93-.62,2.86-1.02,1.75-1.04,2.7-1.39,1.95-.53,2.91-.83,1.97-.4,2.95-.65,1.92-.58,2.92-.78,1.96-.44,2.97-.58,2-.16,3.01-.25,2.01,0,3.02-.05,2-.15,3.01-.15ZM294.66,131.37c0,1.02.22,2.07.25,3.15.03,1.02.21,2.06.28,3.13s-.04,2.09.06,3.15.29,2.07.44,3.12.04,2.11.22,3.16.62,2.02.84,3.05.58,2.01.84,3.04.19,2.13.5,3.14.89,1.92,1.24,2.91.84,1.92,1.25,2.89.55,2.07,1.01,3.01c.48.93,1.12,1.76,1.64,2.62s1,1.83,1.58,2.65,1.33,1.6,1.97,2.38,1.18,1.73,1.88,2.46,1.53,1.42,2.28,2.08,1.76,1.11,2.57,1.71,1.49,1.49,2.35,2.02,1.88.88,2.79,1.32,1.91.78,2.85,1.14,1.92.75,2.9,1.02,1.96.73,2.95.92,2.08.01,3.09.11,2.05.26,3.06.26,2.01.05,3-.04,1.97-.35,2.95-.53,1.97-.34,2.93-.62,1.88-.67,2.81-1.04,1.94-.58,2.82-1.05,1.59-1.23,2.43-1.79,1.65-1.1,2.42-1.75,1.46-1.34,2.16-2.06,1.3-1.48,1.93-2.28,1.31-1.49,1.86-2.35.9-1.76,1.38-2.66,1.04-1.69,1.44-2.63.68-1.85,1.01-2.82.6-1.88.86-2.87.31-1.95.51-2.95.7-1.88.84-2.9.04-1.99.13-3.01.02-1.98.06-3,.02-1.97.02-2.99.33-1.97.29-2.95-.42-1.94-.49-2.93.21-1.99.1-2.97-.37-1.94-.51-2.91-.17-1.97-.34-2.94-.58-1.9-.77-2.86-.47-1.91-.7-2.86-.38-1.94-.64-2.88-.31-1.97-.61-2.9-.69-1.86-1.02-2.77-.92-1.77-1.29-2.66-.51-1.94-.91-2.82-.96-1.74-1.41-2.6c-.49-.89-.94-1.8-1.46-2.63s-1.19-1.64-1.76-2.45-1.33-1.53-1.94-2.3-1-1.81-1.67-2.53-1.5-1.38-2.21-2.06-1.58-1.26-2.35-1.88-1.6-1.22-2.42-1.78-1.62-1.22-2.49-1.7-1.81-.9-2.72-1.29-1.81-.93-2.76-1.24-1.95-.59-2.92-.8-2.02-.18-3.01-.29-2-.14-3-.14-2.01-.14-2.99-.04-1.96.43-2.92.64-1.96.37-2.9.68-1.75.95-2.66,1.36-1.88.66-2.74,1.17-1.7,1.03-2.5,1.63-1.56,1.23-2.29,1.92-1.28,1.5-1.95,2.26-1.4,1.4-1.99,2.22-.99,1.7-1.52,2.57-.94,1.72-1.39,2.63-1.03,1.69-1.42,2.62-.74,1.83-1.07,2.79-.33,1.95-.6,2.93-.74,1.84-.95,2.83-.28,1.95-.44,2.94-.45,1.92-.57,2.93.09,1.98.01,2.99-.25,1.95-.29,2.96-.23,1.97-.23,2.98Z"/>
        <path class="cls-1" d="M519.81,71.97c-1.08,0-1.89.33-2.82.72-.79.33-1.64.74-2.67,1.28-.76.4-1.6.91-2.64,1.39-.8.37-1.73.72-2.76,1.13-.84.33-1.77.68-2.8,1.03-.87.29-1.85.5-2.87.8-.89.26-1.87.45-2.89.72-.91.24-1.87.49-2.89.73-.92.21-1.85.61-2.87.82-.95.2-1.99.08-3.05.1-.97.02-1.99.16-3.04.07-.97-.08-2-.13-3.04-.29-.97-.15-1.98-.32-3-.52s-1.92-.64-2.93-.86-2.02-.18-3.03-.4-1.96-.48-2.96-.69-1.98-.38-2.98-.58-1.92-.71-2.93-.88-2.02-.17-3.04-.31-2.01-.23-3.03-.33-2.02-.05-3.04-.1-2.01-.16-3.03-.16-2.01,0-3.01.04-2.03-.18-3.03-.09-1.99.33-2.98.47-1.98.35-2.97.54-1.93.61-2.9.84-1.94.51-2.89.8-1.95.49-2.89.83-1.84.81-2.75,1.21-1.98.52-2.87.97-1.66,1.17-2.51,1.68-1.86.84-2.68,1.4-1.66,1.15-2.44,1.78-1.3,1.57-2.03,2.26-1.58,1.25-2.26,1.99-1.42,1.43-2.04,2.22-1.11,1.68-1.66,2.52-1.2,1.62-1.69,2.51-.73,1.88-1.14,2.8-.89,1.8-1.23,2.75-.43,1.95-.7,2.93-.58,1.91-.77,2.9-.27,1.97-.4,2.98-.12,1.98-.18,3-.19,1.98-.19,3-.14,2.08-.07,3.08.2,2.07.35,3.06.48,2.02.71,2.99.34,2.05.64,3.01.76,1.93,1.14,2.86.65,1.99,1.1,2.88,1.3,1.64,1.83,2.5.91,1.88,1.5,2.69,1.26,1.65,1.91,2.42c.68.8,1.34,1.6,2.04,2.31.74.75,1.46,1.5,2.2,2.16.8.7,1.64,1.31,2.42,1.91.96.72,1.67,1.33,1.67,1.93,0,.49-1.05,1.22-2,1.7-.98.4-1.97.71-2.87,1.16s-1.87.93-2.72,1.47-1.82,1.05-2.62,1.67-1.51,1.45-2.24,2.15-1.46,1.48-2.12,2.25-1.26,1.65-1.82,2.49-1.25,1.69-1.7,2.59-.96,1.88-1.28,2.83-.47,2.05-.64,3.04-.2,2.07-.2,3.08c0,1.07-.03,2.11.11,3.09.15,1.06.43,2.05.71,3.01.3,1.02.52,2.05.93,2.96.44.97,1.21,1.73,1.75,2.57.57.9,1.19,1.7,1.83,2.46.7.83,1.36,1.59,2.08,2.26.82.76,1.58,1.46,2.34,2.01.99.71,1.88,1.27,2.59,1.64.86.3,1.71.69,2.61.97s1.84.32,2.73.56,1.82.45,2.7.62c.96.19,1.72.52,2.59.59-.84.07-1.65.14-2.68.27-.88.11-1.84.14-2.82.31-.9.15-1.86.26-2.8.47s-1.76.74-2.68.99-1.88.31-2.77.61-1.73.81-2.58,1.18-1.71.81-2.5,1.28c-.8.58-1.7,1-2.44,1.64s-1.3,1.48-1.97,2.19-1.44,1.35-2.03,2.12-1.03,1.67-1.54,2.5-1.18,1.59-1.58,2.48-.84,1.79-1.12,2.73-.5,1.92-.64,2.89.06,1.96.06,2.95.11,2.02.22,3,.02,2.06.25,3.02.59,1.95.96,2.88.82,1.85,1.32,2.73,1.12,1.67,1.74,2.47,1.37,1.44,2.1,2.16,1.24,1.6,2.05,2.24,1.78.92,2.66,1.48c.82.53,1.61,1.16,2.53,1.64.87.46,1.82.79,2.77,1.21.9.39,1.72,1.07,2.69,1.42.92.33,1.97.38,2.96.67s1.92.5,2.93.74,1.92.5,2.93.71,1.94.45,2.96.61,1.97.34,2.99.47,2.01-.02,3.03.07,1.97.32,3,.39,2,0,3.02.04,2,.17,3.02.19,2,.26,3.03.26,2.04-.21,3.06-.24,2.06.17,3.07.12,2.02-.46,3.04-.54,2.07.17,3.08.07,2.04-.24,3.04-.36,2.03-.27,3.04-.42,2.02-.34,3.02-.51,2.04-.27,3.03-.47,2.01-.42,3-.65,1.9-.85,2.88-1.11,2.03-.34,3-.63,1.96-.6,2.92-.92,1.95-.66,2.9-1.01,1.9-.78,2.84-1.16,1.92-.72,2.84-1.14,1.78-1.02,2.68-1.48,1.92-.75,2.8-1.25,1.69-1.18,2.54-1.72,1.78-1.02,2.61-1.6,1.62-1.26,2.41-1.88,1.51-1.39,2.26-2.06,1.64-1.25,2.34-1.98,1.24-1.63,1.89-2.41,1.4-1.5,1.98-2.33,1.02-1.77,1.52-2.65,1.12-1.71,1.54-2.64.89-1.85,1.21-2.82.44-1.99.65-2.99.34-2,.44-3.02.12-2.01.12-3.04-.09-2.02-.16-2.98c-.08-1.03.18-2.06.03-3.02-.16-1.02-.35-2.02-.6-2.96-.26-.99-.88-1.85-1.23-2.76-.37-.95-.5-2-.96-2.86s-1.04-1.75-1.61-2.55-1.26-1.58-1.94-2.31-1.62-1.19-2.39-1.83-1.54-1.23-2.39-1.78-1.68-1.04-2.58-1.5-1.75-.92-2.7-1.29-1.87-.65-2.84-.95-1.88-.63-2.87-.86-1.95-.35-2.95-.52-1.98-.15-2.99-.27-1.97-.21-2.98-.28-1.97-.31-2.98-.34-1.99.07-3,.07-2.01.02-3.04.05-2.02-.05-3.04,0-2.02.03-3.04.09-2.01.36-3.02.44-2.03.14-3.04.23-2.05-.01-3.05.08-2.03.15-3.03.25-2.02.35-3.01.44-2.06.02-3.05.11c-1.04.1-2.05.19-3.03.27-1.05.09-2.06.25-3.03.32-1.07.08-2.09,0-3.04.04-1.09.05-2.1.24-3.02.24-1.04,0-2.04.14-3,.07-1.04-.08-1.99-.53-2.92-.7-1.03-.18-2.09-.04-3-.32-1-.31-1.92-.78-2.76-1.21-.94-.47-1.7-1.14-2.43-1.75-.8-.66-1.48-1.37-2.03-2.17s-.94-1.73-1.22-2.7-.53-1.89-.53-2.93.31-1.91.55-2.79c.25-.94.62-1.78,1.1-2.59s.91-1.68,1.59-2.36,1.53-1.1,2.34-1.63,1.47-1.27,2.35-1.66,1.86-.5,2.78-.75,1.83-.62,2.77-.75,1.93.13,2.87.13,1.93-.05,2.97,0c.96.05,1.96.1,2.97.18s1.97.29,2.96.36,2.02-.18,2.99-.12c1.03.06,2.02.29,2.96.29,1.01,0,2.01-.13,3-.17s2.03.14,3.02.06,1.96-.55,2.95-.68,2.04.01,3.01-.16,1.95-.53,2.91-.75,2.02-.26,2.97-.53,1.83-.9,2.77-1.22,1.97-.48,2.88-.86,1.74-1.02,2.64-1.46,1.8-.87,2.67-1.36,1.7-1.06,2.53-1.6,1.66-1.11,2.45-1.72,1.76-1.02,2.5-1.68,1.33-1.51,2.03-2.23,1.47-1.37,2.1-2.15,1.03-1.72,1.6-2.55,1.12-1.64,1.62-2.51.93-1.75,1.36-2.66,1.09-1.7,1.44-2.65.74-1.87,1.02-2.84.43-1.96.63-2.95.25-1.98.38-2.98.09-1.98.16-3,.17-1.98.17-2.99.17-2.02.08-2.96c-.09-1.02-.21-2.01-.39-2.94-.19-1.01-.43-1.98-.7-2.88-.29-.99-.86-1.84-1.21-2.71-.39-.96-.79-1.86-1.21-2.69-.49-.94-.93-1.83-1.4-2.6-.59-.95-1.29-1.67-1.76-2.37-.82-1.22-1.25-2.16-1.25-2.67,0-.72.26-1.32,1.22-1.32.78,0,1.88.15,3.25.2.96.03,2.05.23,3.26.19,1-.03,2.09-.2,3.25-.33,1.02-.11,2.07-.39,3.2-.61,1.02-.2,2.12-.24,3.22-.55s1.99-.73,2.84-1.13c.99-.47,1.86-1.01,2.59-1.6.83-.68,1.36-1.54,1.87-2.37.42-.69.78-1.5,1.12-2.41.3-.81.64-1.64.86-2.53s.49-1.74.61-2.62c.13-.93.04-1.84.04-2.68,0-.98.07-1.88-.09-2.67-.21-1-.62-1.8-1.1-2.41-.58-.73-1.32-1.11-2.28-1.11ZM470.71,200.75c1,0,1.96.17,2.91.23,1,.06,1.96.15,2.9.28.99.14,1.97.21,2.89.43.98.23,1.89.58,2.77.9.95.35,1.8.8,2.62,1.25.88.48,1.76.9,2.49,1.5s1.34,1.41,1.93,2.17,1.34,1.46,1.74,2.36.59,1.85.77,2.84c.17.91.04,1.89.04,2.92s.18,2-.04,2.95-.55,1.9-.97,2.8-1.17,1.55-1.75,2.37c-.55.78-1.1,1.56-1.8,2.29-.66.69-1.17,1.58-1.96,2.22-.74.6-1.59,1.12-2.44,1.67-.8.52-1.67.98-2.56,1.46-.84.46-1.67,1-2.59,1.41s-1.87.55-2.81.91-1.78.8-2.73,1.1-1.86.57-2.83.82-1.87.58-2.84.79-1.91.42-2.89.59-1.93.28-2.92.41-1.95.15-2.94.25-1.94.29-2.93.36-1.97-.28-2.96-.25-1.95.41-2.94.41-2.04-.02-3.04-.05-2.04-.09-3.04-.16-2-.49-2.99-.6-2.06.03-3.04-.12-2.04-.28-3-.48c-1.02-.22-2-.5-2.94-.78-1-.29-1.97-.61-2.88-.97-.98-.38-1.77-1.08-2.63-1.53-.93-.49-1.77-1-2.55-1.58-.84-.62-1.82-1.04-2.48-1.77s-1.32-1.61-1.79-2.49-.62-1.92-.85-2.93c-.22-.95-.27-1.94-.27-3,0-.98-.04-1.94.17-2.87s.46-1.89.87-2.76,1.16-1.51,1.74-2.31,1.13-1.49,1.83-2.19c.66-.66,1.34-1.33,2.13-1.93.74-.57,1.48-1.19,2.33-1.7.8-.48,1.62-1,2.51-1.43s1.78-.67,2.7-1.03,1.75-.76,2.69-1.05,1.89-.31,2.84-.54c.81-.2,1.82-.41,2.99-.6.92-.16,1.93-.33,3.02-.49.96-.13,1.94-.54,3.01-.67.98-.12,2-.28,3.04-.39.99-.1,2.03,0,3.07-.09s2.03-.15,3.06-.23,2.04-.11,3.06-.18,2.05-.14,3.06-.19,2.05-.21,3.06-.25,2.07.11,3.07.09c1.05-.02,2.08-.17,3.06-.17ZM456.57,145.55c-.99,0-1.97-.11-2.95-.22s-1.94-.34-2.89-.55-1.96-.32-2.88-.64-1.76-.88-2.65-1.31-1.84-.74-2.66-1.28-1.5-1.26-2.26-1.9-1.47-1.28-2.14-2.01-1.24-1.49-1.83-2.31-1-1.65-1.49-2.53-1.14-1.61-1.53-2.53-.44-1.9-.75-2.87-.73-1.81-.94-2.79-.41-1.9-.55-2.9-.07-1.94-.14-2.95-.25-1.94-.25-2.95.04-2,.12-2.97.08-2.01.24-2.97.52-1.94.78-2.88.49-1.95.84-2.85.83-1.82,1.27-2.69,1.11-1.65,1.65-2.46.91-1.81,1.55-2.55,1.6-1.2,2.33-1.86,1.46-1.3,2.28-1.87,1.57-1.2,2.45-1.66,1.72-1.02,2.65-1.36,1.96-.3,2.94-.53,1.91-.38,2.91-.49,1.94-.28,2.94-.28,2.04.1,3.01.2c1.04.11,2,.37,2.95.58,1.01.22,2.02.32,2.95.66.97.35,1.96.64,2.83,1.09s1.74,1.07,2.55,1.65,1.56,1.3,2.29,1.98,1.32,1.52,1.96,2.29,1.32,1.52,1.87,2.36,1.28,1.6,1.74,2.49.87,1.84,1.24,2.77.62,1.94.91,2.89.72,1.92.95,2.89.39,2.01.54,2.99.1,2.05.18,3.03c.08,1.04,0,2.05,0,3.02s.1,1.98.03,2.93c-.08,1-.39,1.94-.55,2.88-.16.99-.24,1.96-.48,2.88-.26.97-.3,1.99-.64,2.88s-.92,1.77-1.37,2.61-.93,1.76-1.49,2.54-1.3,1.49-1.96,2.19-1.35,1.43-2.11,2.04-1.53,1.25-2.36,1.76-1.81.75-2.71,1.15-1.72.95-2.67,1.24-1.89.49-2.86.68-1.94.11-2.93.2-1.93.29-2.92.29Z"/>
        <path class="cls-1" d="M585.41,75.33c1.02,0,2.03-.08,3.04-.04s2.02.22,3.02.32,2.02.16,3.02.3,1.98.43,2.97.62,1.96.5,2.94.74,1.97.44,2.94.73,2.03.33,2.98.67,1.78,1.03,2.71,1.41,1.85.8,2.76,1.24,1.9.72,2.79,1.2,1.78.96,2.65,1.49,1.71,1.08,2.55,1.66,1.58,1.27,2.38,1.89,1.68,1.13,2.46,1.79,1.6,1.25,2.34,1.95,1.42,1.45,2.12,2.19,1.27,1.58,1.93,2.35,1.36,1.49,1.99,2.3,1.02,1.75,1.6,2.59,1.2,1.62,1.74,2.48,1.02,1.74,1.51,2.63,1.1,1.7,1.54,2.62.98,1.78,1.38,2.71.58,1.94.94,2.9.91,1.82,1.23,2.79.51,1.96.78,2.94.61,1.93.84,2.93.31,2,.5,3,.51,1.96.66,2.97.26,2.01.37,3.03.07,2.02.14,3.04-.06,2.02-.03,3.05.07,2.01.07,3.04.13,2.06.1,3.06-.12,2.05-.19,3.06-.38,2.02-.5,3.03.09,2.08-.06,3.08-.49,2-.69,2.99-.58,1.97-.83,2.95-.2,2.07-.5,3.04-.9,1.86-1.24,2.81-.78,1.89-1.17,2.82-.52,2.02-.97,2.92-1.08,1.75-1.58,2.63-1.15,1.69-1.7,2.54-.89,1.87-1.49,2.69-1.47,1.45-2.12,2.23-1.09,1.77-1.79,2.51-1.54,1.36-2.28,2.06-1.45,1.45-2.23,2.1-1.75,1.07-2.58,1.67-1.6,1.27-2.46,1.82-1.77,1-2.66,1.5-1.71,1.12-2.63,1.57-1.78,1.02-2.72,1.43-2.02.44-2.98.79-1.89.74-2.87,1.04-1.87.86-2.86,1.12-2.02.32-3.02.54-2,.34-3.02.51-2.01.33-3.02.45-2.03.08-3.05.16-2.01.46-3.04.5-2.04.12-3.07.12-2.04-.03-3.04-.07-2.04-.07-3.03-.15-2-.41-2.99-.53-2.04-.09-3.03-.26-1.94-.64-2.92-.86-2.04-.21-3.01-.47-1.97-.52-2.92-.83-1.93-.64-2.87-1-1.9-.73-2.82-1.13-1.69-1.17-2.58-1.63-1.82-.88-2.69-1.39-1.85-.86-2.69-1.41-1.66-1.16-2.47-1.76-1.66-1.17-2.44-1.81-1.36-1.51-2.1-2.2-1.6-1.25-2.3-1.98-1.18-1.66-1.83-2.42-1.57-1.33-2.18-2.13-1.04-1.74-1.61-2.58-.95-1.78-1.48-2.64-1.26-1.6-1.73-2.5-.72-1.89-1.15-2.81-1.08-1.73-1.46-2.67-.76-1.87-1.1-2.83-.49-1.96-.78-2.93-.39-1.97-.64-2.96-.59-1.93-.79-2.92-.37-1.97-.53-2.98-.38-1.98-.5-2.99-.01-2.02-.09-3.03-.36-1.99-.4-3.01.14-2.01.14-3.03-.18-2.03-.15-3.02.22-2.01.29-3.01.28-2,.4-2.99.09-2.02.24-3.01.25-2.01.44-2.99.55-1.95.78-2.92.55-1.94.82-2.9.44-1.98.76-2.92.51-1.97.87-2.9.98-1.78,1.38-2.7.62-1.94,1.07-2.84,1.07-1.72,1.56-2.6,1.14-1.66,1.68-2.51,1.02-1.74,1.6-2.55,1.09-1.7,1.71-2.49,1.23-1.6,1.89-2.36,1.44-1.42,2.14-2.14,1.29-1.58,2.03-2.25,1.56-1.28,2.34-1.92,1.78-.98,2.6-1.57,1.42-1.49,2.26-2.04,1.73-1.04,2.61-1.54,1.79-.92,2.7-1.37,1.82-.87,2.75-1.26,1.92-.6,2.87-.95,1.85-.81,2.82-1.1,1.96-.46,2.94-.71,1.94-.53,2.93-.72,2.01-.14,3.01-.28,1.95-.53,2.96-.63,2.01-.07,3.02-.12,2-.03,3.02-.03ZM551.81,131.37c0,1.02.12,2.07.16,3.15.03,1.02-.02,2.08.06,3.15s.21,2.07.32,3.14.1,2.09.25,3.15.21,2.09.39,3.14.44,2.06.66,3.09.74,1.98,1,3,.21,2.12.52,3.13.63,2.02.99,3.01.92,1.91,1.33,2.87.88,1.91,1.35,2.85c.48.93.97,1.83,1.49,2.69s.99,1.84,1.56,2.66,1.34,1.59,1.97,2.37,1.42,1.5,2.12,2.23,1.42,1.5,2.17,2.17,1.49,1.45,2.3,2.05,1.74,1.12,2.6,1.64,1.69,1.24,2.59,1.68,1.93.78,2.87,1.14,1.95.71,2.92.99,2.04.35,3.04.53,2.05.2,3.05.29,2.05.35,3.06.35,1.99-.28,2.98-.37,1.99-.12,2.97-.3,1.92-.5,2.88-.77,1.94-.47,2.87-.84,1.75-.93,2.64-1.4,1.73-.95,2.56-1.51,1.69-1.04,2.46-1.69,1.62-1.18,2.32-1.91,1.33-1.48,1.96-2.28,1.06-1.67,1.62-2.53,1.05-1.67,1.53-2.57,1.08-1.68,1.48-2.62.41-1.96.74-2.92.74-1.83,1-2.82.63-1.88.83-2.88.03-2,.17-3.01.54-1.93.63-2.94.21-1.97.25-3-.27-1.99-.27-3.01.15-1.96.11-2.95.05-1.97-.02-2.95-.45-1.93-.55-2.91.07-1.99-.06-2.96-.61-1.9-.77-2.86-.2-1.96-.4-2.92-.51-1.9-.74-2.85-.22-1.98-.48-2.92-.65-1.87-.94-2.8-.53-1.91-.86-2.83-.84-1.8-1.2-2.7-.91-1.76-1.31-2.64-.52-1.95-.97-2.81c-.49-.89-1.05-1.74-1.58-2.58s-1.33-1.55-1.9-2.35-1.05-1.74-1.67-2.51-1.25-1.6-1.91-2.32-1.41-1.46-2.13-2.13-1.41-1.47-2.18-2.09-1.79-.98-2.61-1.53-1.72-1.04-2.58-1.52-1.77-.94-2.67-1.34-1.86-.72-2.81-1.03-1.86-.78-2.84-.99-2-.19-2.99-.29-1.98-.44-2.98-.44-1.98.31-2.96.41-1.95.28-2.92.49-1.91.47-2.85.78-1.84.69-2.74,1.1-1.94.55-2.8,1.07-1.64,1.12-2.44,1.73-1.4,1.4-2.13,2.08-1.42,1.36-2.08,2.12-1.19,1.55-1.79,2.37-1.34,1.47-1.86,2.33-.8,1.8-1.25,2.71-1.09,1.66-1.48,2.6-.39,1.95-.72,2.91-.8,1.8-1.07,2.78-.67,1.86-.89,2.85-.12,1.98-.29,2.98-.52,1.91-.64,2.92.06,1.98-.02,2.99-.11,1.96-.14,2.97-.26,1.96-.26,2.97Z"/>
        <path class="cls-1" d="M734.75,168.63c-.94,0-1.7.4-2.6,1.28-.6.58-1.16,1.41-1.97,2.31-.65.71-1.46,1.42-2.28,2.19-.73.69-1.52,1.4-2.38,2.07-.8.63-1.79,1.06-2.7,1.63s-1.78,1.05-2.74,1.52-1.77,1.19-2.79,1.52-2.05.52-3.1.69-2.09.16-3.16.16-2.06-.24-3.01-.37c-1.05-.15-2.06-.24-2.97-.53-1-.32-2.01-.59-2.86-1.07-.9-.51-1.6-1.29-2.34-1.95s-1.43-1.42-2.04-2.23-1.1-1.67-1.58-2.58-.86-1.8-1.21-2.77-.8-1.85-1.05-2.85-.22-2.01-.4-3.01-.62-1.95-.73-2.96-.11-2.02-.17-3.03-.12-2.03-.15-3.03.23-2.04.23-3.03c0-.88-.04-1.89-.03-3.01,0-.93.08-1.94.1-3.01.01-.96-.08-1.96-.06-3.01.02-.97.03-1.97.05-3.01.02-.98.15-1.98.17-3.01s-.19-2-.17-3.01.14-2,.17-3.01.17-2,.19-3-.09-2.01-.06-3.02,0-2.02.03-3.01.05-2.02.08-3.01.03-2.03.05-3.01.17-2.03.2-3.01c.03-1.04-.06-2.05-.03-3.01.03-1.05.15-2.06.18-3.01.03-1.09,0-2.1.03-3.01.04-1.16.14-2.21.17-3.04-.82-1.04-1.06-.82-2.08-1.67s-1.1-.75-2.12-1.61-1.08-.78-2.1-1.64-2.55-.69-1.85-1.82c.82-1.32,1.49-.17,3.04-.17s1.55.32,3.1.32,1.55-.05,3.11-.06c.14-.03.28-.25.41-.25.25,0,.7.24,1.3.26.76.02,1.78-.06,2.97-.02.89.03,1.89.04,2.96.09.94.04,1.93.08,2.96.12.96.04,1.96.04,2.96.08s1.96.31,2.95.35,2-.14,2.97-.1,2,.32,2.95.36c1.04.04,2.04.05,2.97.09,1.1.04,2.11-.11,2.97-.07,1.51.06,2.57.23,2.96.23,1.56,0,2.8-.77,3.4-1.38.54-.5,1.35-1.08,1.87-1.99.42-.74.55-1.71.89-2.59.32-.84.76-1.67.95-2.56s.38-1.85.38-2.72c0-1.42-.58-2.44-1-3.3-.55-1.13-1.18-2.09-2.29-2.5-.98-.36-2.2-.32-3.48-.32-.4,0-1.45.21-2.95.26-.85.03-1.85-.08-2.95-.03-.92.04-1.91.18-2.95.22-.95.04-1.94-.03-2.96.02s-1.96-.12-2.96-.08-1.96.45-2.94.5-2-.26-2.97-.22c-1.02.04-1.99.41-2.94.45-1.04.05-2.04.03-2.96.07-1.11.05-2.11-.14-2.96-.1-1.59.06-2.65.17-2.94.17-.96,0-.89-.17-.89-.77,0-.19-.04-1.4.05-3.19.05-.92.22-2,.28-3.18.05-1,.17-2.07.23-3.18.06-1.04.16-2.11.22-3.19s-.25-2.16-.19-3.21c.05-1.1.24-2.17.29-3.19.05-1.16-.06-2.25-.03-3.2.05-1.38.27-2.49.27-3.18,0-.98-.03-1.88-.17-2.69-.16-.99-.4-1.87-.74-2.6-.42-.9-1.08-1.51-1.75-1.99-.72-.51-1.51-1.03-2.48-1.03-1.05,0-2.05.41-2.84,1.08-.67.58-.97,1.61-1.53,2.57-.46.79-1.08,1.58-1.52,2.56-.38.86-.79,1.77-1.17,2.74-.35.89-.73,1.81-1.12,2.77-.36.9-.6,1.88-1.01,2.81s-.71,1.85-1.16,2.76-1.19,1.61-1.69,2.48-1.08,1.64-1.65,2.47-.88,1.82-1.52,2.59c-.66.8-1.47,1.46-2.21,2.17s-1.57,1.33-2.38,1.96-1.52,1.42-2.38,1.98-1.87.89-2.77,1.38-1.87.85-2.79,1.3-1.82.97-2.76,1.37-1.8,1.06-2.74,1.43c-1.09.42-1.93.89-2.65,1.47-.87.7-1.53,1.39-1.93,2.3s-.82,1.89-.82,2.99c0,1.16.38,2.18,1.08,2.87.61.6,1.65.85,2.78,1.21.84.27,1.78.67,2.89.86.9.15,1.91.26,2.99.39.93.11,1.93.26,2.99.37.95.1,1.95.14,3,.25,1.14.13,1.92.46,2.54,1.02s.96,1.33,1.18,2.45c.16.79.52,1.7.52,2.81,0,.84-.13,1.85-.15,3.01-.02.92-.28,1.92-.31,3.01-.02.95.21,1.96.18,3.02-.03.97-.2,1.97-.23,3.01-.03.98.02,1.99,0,3.02s-.15,1.99-.18,3.01-.07,2-.1,3.01.05,2,.01,3.02.07,2.01.03,3.02-.01,2.01-.05,3.02-.43,2.01-.47,3.01.04,2.02.01,3.02.13,2.03.1,3.02-.32,2.02-.35,3.01.07,2.04.04,3.02c-.03,1.04-.15,2.05-.18,3.01-.03,1.05-.07,2.06-.09,3.02-.02,1.08.19,2.09.17,3.02-.02,1.14-.2,2.14-.2,3.01,0,1.02,0,2.03.02,3.01s-.08,2.04-.02,3.02.48,2,.57,2.98.19,2.02.32,2.99.22,2.02.4,2.98c.19,1.01.3,2.01.53,2.96.24,1,.53,1.96.82,2.9.3.99.54,1.97.88,2.88.36.96.82,1.86,1.24,2.75.44.93.92,1.81,1.42,2.66s1.22,1.61,1.8,2.41,1.22,1.59,1.88,2.32,1.23,1.61,1.99,2.26,1.69,1.08,2.52,1.64,1.6,1.22,2.49,1.67,1.77.95,2.72,1.3,1.94.48,2.93.73,1.9.62,2.91.78,2-.02,3.02.05,1.97.17,3,.17,2.02.12,2.99.06c1.02-.06,2-.29,2.96-.41,1.01-.13,2.02-.14,2.97-.33,1-.2,1.9-.71,2.83-.97s1.99-.36,2.9-.7,1.88-.73,2.76-1.14,1.81-.88,2.66-1.35,1.73-1.03,2.53-1.58,1.52-1.32,2.28-1.93,1.66-1.16,2.36-1.82c.74-.7,1.5-1.36,2.15-2.08.69-.76,1.15-1.68,1.74-2.44.64-.82,1.48-1.44,2-2.23.58-.88.81-1.91,1.26-2.72.51-.85,1.08-1.62,1.42-2.45.39-.94.63-1.86.83-2.71.25-1.04.57-1.99.57-2.79,0-1.24-.52-2.06-.87-2.7-.6-1.09-1.42-1.39-2.18-1.39Z"/>
        <path class="cls-1" d="M818.66,181c-.4.93-.93,1.8-1.33,2.72s-.84,1.84-1.24,2.76-.83,1.85-1.23,2.76-.82,1.85-1.22,2.76-.63,1.94-1.03,2.85-.71,1.9-1.12,2.81-1.11,1.72-1.52,2.63-.55,1.98-.96,2.88-1.1,1.72-1.52,2.62-.62,1.95-1.05,2.85-1.06,1.74-1.5,2.63-.81,1.87-1.25,2.75-.94,1.8-1.4,2.68-.98,1.78-1.45,2.66-.83,1.87-1.31,2.73-1.29,1.6-1.79,2.46-1.01,1.76-1.54,2.6-.91,1.83-1.46,2.65-1.18,1.66-1.75,2.46-1.19,1.65-1.79,2.43-1.46,1.43-2.11,2.17-1.07,1.77-1.76,2.48-1.67,1.19-2.41,1.85-1.39,1.5-2.18,2.09-1.64,1.21-2.48,1.73-1.75,1.02-2.65,1.46-1.82.9-2.76,1.23-1.97.42-2.96.64-1.96.33-2.97.44-1.97.38-3,.38-1.98.03-2.92-.09-1.91-.5-2.83-.74-1.94-.41-2.81-.78-1.78-.86-2.59-1.36-1.41-1.35-2.13-1.99-1.62-1.13-2.23-1.88-1.12-1.6-1.58-2.46-.95-1.71-1.26-2.64-.49-1.88-.65-2.86-.13-1.92-.13-2.92.03-2.02.17-2.99.51-1.95.8-2.88.76-1.84,1.19-2.72.73-1.91,1.31-2.69,1.31-1.55,2.03-2.21,1.68-1.1,2.52-1.59,1.71-1.04,2.66-1.31,1.95-.52,2.95-.52c1.13,0,2.18.23,3.03.66.91.46,1.47,1.38,2.12,2.2.61.77,1.07,1.64,1.5,2.61.41.97,1.03,1.81,1.47,2.67.49.96,1.06,1.79,1.63,2.55.65.87,1.3,1.63,2.11,2.14s1.79.87,2.87.87c.82,0,1.7-.47,2.7-1.05.76-.44,1.56-.99,2.37-1.69.69-.6,1.47-1.21,2.17-1.97.64-.69,1.43-1.33,2.06-2.12.6-.75.93-1.74,1.5-2.55s1.28-1.5,1.79-2.34,1.01-1.7,1.47-2.56.66-1.88,1.06-2.76c.41-.92.77-1.83,1.08-2.72.34-.97.91-1.83,1.1-2.74.22-1.03.39-2.04.39-2.94,0-.68-.4-1.69-.72-3-.21-.86-.28-1.91-.62-3-.27-.9-.58-1.88-.92-2.92-.3-.92-.67-1.87-1.03-2.88-.32-.92-.7-1.87-1.06-2.87-.34-.93-.78-1.85-1.14-2.84-.35-.93-.85-1.83-1.22-2.8s-.64-1.91-1.01-2.88-.77-1.87-1.15-2.83-.48-1.99-.86-2.95-1-1.78-1.38-2.74-.88-1.84-1.26-2.79-.72-1.9-1.11-2.85-.49-2-.88-2.94-.95-1.82-1.34-2.76-.7-1.92-1.09-2.86-.95-1.82-1.34-2.76-.75-1.91-1.14-2.84-.54-2-.93-2.93-.9-1.85-1.29-2.78-.89-1.86-1.29-2.78-.68-1.95-1.07-2.87-.96-1.83-1.35-2.75c-.41-.97-.93-1.86-1.32-2.77-.42-.98-.69-1.97-1.08-2.86-.42-.99-.71-1.98-1.09-2.86-.43-1.02-.94-1.91-1.31-2.77-.46-1.08-.81-2.04-1.14-2.83-.39-.93-.67-1.94-1.08-2.93s-.71-1.94-1.11-2.91-1.17-1.75-1.58-2.72-.61-2-1.03-2.95-.69-1.97-1.12-2.92-1.1-1.79-1.54-2.73-.89-1.9-1.35-2.82-.78-1.97-1.27-2.86c-.51-.94-1.22-1.74-1.74-2.6-.57-.93-1.19-1.76-1.77-2.56-.64-.9-1.15-1.82-1.81-2.54-.76-.83-1.6-1.46-2.38-2-.86-.7-1.69-1.45-2.49-2.18s-1.49-1.64-2.02-2.57-1.13-1.89-1.13-3.09c0-1.13.3-2.21.8-3.02s1.45-1.41,2.47-1.83c.84-.35,1.85-.54,3.01-.54,1.06,0,2.1-.16,3.13-.12s2.08.2,3.11.26,2.07.09,3.11.15,2.05.22,3.11.25,2.06.21,3.12.21c.93,0,1.95-.28,3.03-.32.97-.03,1.99,0,3.04-.05s2.02.07,3.04.02,2.02-.28,3.03-.32,2.06.11,3.04.08c1.06-.03,2.08-.36,3.03-.36s1.81.44,2.62.57c.96.15,1.76.32,2.45.78s1.3,1.04,1.62,1.99c.24.71.34,1.57.34,2.62s-.55,1.81-1.27,2.7c-.59.74-1.26,1.53-2.04,2.31-.7.71-1.42,1.48-2.06,2.32s-1.07,1.72-1.44,2.72c-.34.91-.56,1.89-.56,3.02,0,.89.07,1.87.28,3.06.15.87.17,1.9.48,3.05.24.88.79,1.78,1.13,2.88.28.89.61,1.86.97,2.92.31.9.69,1.85,1.06,2.89.32.91.5,1.93.88,2.95.33.91.69,1.88,1.07,2.89.34.92.6,1.92.98,2.92.35.92.87,1.82,1.25,2.82.35.92.84,1.83,1.23,2.83.36.93.72,1.89,1.1,2.88.36.93.54,1.96.92,2.95.36.93.78,1.87,1.17,2.86.36.93.72,1.85,1.07,2.75s.89,1.78,1.24,2.68.73,1.85,1.08,2.75.57,1.91.92,2.81.56,1.92.91,2.81c.37.94.79,1.83,1.13,2.72.37.94.68,1.88,1.03,2.76.37.95,1.05,1.73,1.4,2.61.38.95.63,1.91.98,2.78.39.96.69,1.9,1.05,2.75.4.97.7,1.91,1.06,2.75.43.99.82,1.9,1.19,2.7.48,1.04.86,1.96,1.24,2.68.8,1.5,1.56,2.07,1.92,2.07.43,0,.92-.68,1.72-2.11.4-.7,1-1.47,1.49-2.51.37-.79.74-1.7,1.16-2.68.36-.83.82-1.7,1.21-2.66.34-.85.49-1.84.86-2.8.34-.87.68-1.78,1.04-2.73.33-.88.88-1.71,1.23-2.66.33-.88.68-1.79,1.02-2.74.32-.89.39-1.9.72-2.84.32-.9.95-1.71,1.28-2.65s.35-1.92.67-2.86.76-1.78,1.08-2.72.79-1.77,1.11-2.71.64-1.83.96-2.77.39-1.91.71-2.85c.33-.96.5-1.94.8-2.84.33-.96.98-1.77,1.28-2.67.32-.97.47-1.95.76-2.85.32-.97.68-1.89.97-2.78.31-.98.58-1.92.86-2.82.31-.99.55-1.94.82-2.83.3-1,.69-1.9.94-2.79.29-1.01.45-1.99.68-2.87.27-1.04.3-2.03.5-2.9.25-1.07.68-1.97.84-2.83.21-1.12.28-2.08.38-2.92.13-1.16,0-2.09,0-2.93,0-1.11-.06-2.05-.32-2.92-.29-1.03-.5-2.02-1.04-2.81-.58-.85-1.36-1.51-2.07-2.18-.75-.7-1.66-1.2-2.39-1.81-.81-.69-1.43-1.51-1.98-2.26-.6-.81-1.16-1.68-1.16-2.76s.5-1.91.88-2.66c.44-.86.94-1.7,1.78-2.13.77-.4,1.76-.52,2.78-.52.87,0,1.94.03,3.11.08.98.04,2.04.11,3.12.16s2.09.04,3.12.09c1.09.05,2.14.25,3.11.29,1.21.05,2.28-.03,3.11-.03,1.02,0,2.18-.03,3.39-.08,1.11-.05,2.26-.11,3.39-.18,1.18-.07,2.35-.03,3.4-.09,1.36-.08,2.54-.08,3.37-.08,1.13,0,2.06-.04,2.79.21,1.05.36,1.89.92,2.31,1.66s.22,1.81.22,2.81c0,1.16.08,2.12-.3,2.93-.41.86-.99,1.67-1.75,2.44-.62.63-1.37,1.26-2.17,2.03-.65.62-1.57,1.09-2.31,1.89-.61.67-1.03,1.6-1.69,2.46-.55.73-1.05,1.57-1.62,2.47-.5.78-.99,1.62-1.49,2.56-.45.82-1.23,1.53-1.68,2.48-.4.85-.53,1.88-.93,2.84-.38.91-.74,1.86-1.13,2.84-.37.92-.88,1.81-1.26,2.78s-.9,1.81-1.27,2.78-.48,1.98-.85,2.94-.84,1.84-1.21,2.81-.57,1.94-.94,2.91-.96,1.8-1.32,2.77-.79,1.87-1.15,2.83-.42,2.01-.79,2.97-.71,1.9-1.07,2.86-.93,1.82-1.29,2.78-.64,1.93-1,2.89-.89,1.84-1.25,2.79-.42,2.01-.79,2.97-.75,1.89-1.11,2.84-.96,1.81-1.32,2.76-.56,1.96-.93,2.92-.69,1.92-1.06,2.87-.77,1.89-1.14,2.84-.88,1.85-1.25,2.79-.81,1.87-1.19,2.82-.53,1.99-.91,2.93-.72,1.91-1.11,2.85-1,1.79-1.39,2.73-.76,1.9-1.15,2.83-.69,1.93-1.09,2.86-.79,1.88-1.2,2.81Z"/>
        <path class="cls-1" d="M944.49,75.27c-1.05,0-2.08.01-3.08.08s-2.07.17-3.06.3-2.03.39-3.02.59-2.06.3-3.03.57-1.98.64-2.92.98-1.89.85-2.81,1.26-1.86.91-2.74,1.38-1.85.94-2.7,1.47c-.89.56-1.75,1.11-2.56,1.7-.86.62-1.59,1.35-2.36,1.97-.83.67-1.75,1.17-2.48,1.83-.8.73-1.6,1.39-2.29,2.07-.78.78-1.31,1.7-1.95,2.39-.8.86-1.5,1.61-2.09,2.25-1.11,1.2-1.91,1.81-2.36,1.81-.69,0-1.29-.74-1.71-2.1-.24-.79-.47-1.77-.67-2.84-.17-.89-.04-1.91-.2-2.92-.15-.93-.39-1.89-.54-2.86s-.33-1.93-.51-2.87c-.25-1.15-.76-2.01-1.15-2.77-.54-1.03-1.02-1.95-1.82-2.39s-1.88-.4-2.99-.4c-.91,0-1.85.09-2.87.37-.85.24-1.74.62-2.73,1.02-.83.34-1.7.75-2.66,1.18-.83.37-1.79.59-2.74,1.02-.83.38-1.61,1.03-2.55,1.44-.85.37-1.88.42-2.82.82-.98.4-1.81,1.05-2.72,1.38-1.01.37-1.97.69-2.85,1.04-1.02.4-1.9.88-2.7,1.32-.98.54-1.82,1.04-2.37,1.78s-.7,1.67-.7,2.82c0,1.26.25,2.43,1.16,3.26.83.75,2.07,1.15,3.21,1.6,1.12.36,2.07.95,3.02,1.4,1.07.5,2.1.9,2.88,1.62s1.45,1.64,1.85,2.74c.34.93.56,2.01.56,3.28,0,1.52-.21,1.52-.21,3.03s.02,1.52.02,3.03.17,1.52.17,3.03-.17,1.52-.17,3.04.18,1.52.18,3.04.1,1.52.1,3.03-.08,1.52-.08,3.03-.23,1.52-.23,3.04.02,1.52.02,3.04.18,1.52.18,3.04.09,1.52.09,3.04-.12,1.52-.12,3.04-.22,1.52-.22,3.04,0,1.52,0,3.04.16,1.52.16,3.04.05,1.52.05,3.04-.07,1.52-.07,3.04.02,1.52.02,3.04.13,1.52.13,3.04-.13,1.52-.13,3.04.06,1.52.06,3.04,0,1.52,0,3.03,0,1.52,0,3.03-.17,1.52-.17,3.04.22,1.52.22,3.03.11,1.52.11,3.04-.17,1.52-.17,3.04.2,1.52.2,3.04-.3,1.52-.3,3.04.12,1.52.12,3.04-.1,1.52-.1,3.04.25,1.52.25,3.04-.36,1.52-.36,3.04.21,1.52.21,3.04.17,1.52.17,3.04-.22,1.52-.22,3.04-.02,1.52-.02,3.05-.15,1.52-.15,3.05c0,.99.32,1.94.25,2.83-.08.97-.24,1.91-.44,2.8s-.71,1.74-1.09,2.6-.76,1.67-1.34,2.46c-.52.71-1,1.55-1.72,2.24-.63.61-1.55.97-2.36,1.57-.84.55-1.77,1.24-2.76,1.88s-1.69,1.41-2.34,2.3-1.07,1.75-1.07,3.01c0,1.09.22,2.1.99,2.93.61.65,1.5,1.14,2.79,1.46.88.22,1.92.36,3.19.36.95,0,1.88-.08,2.81-.09s1.89.14,2.81.11,1.88-.1,2.81-.14,1.87-.13,2.8-.17,1.87-.06,2.8-.08,1.86-.11,2.81-.13,1.86.09,2.81.09,1.85-.15,2.81-.13,1.86.29,2.8.32,1.88-.04,2.81-.01,1.89.19,2.81.22c.97.03,1.92-.19,2.82-.16.99.03,1.93.07,2.81.09,1.05.03,1.99.32,2.8.32,1.38,0,2.52-.31,3.47-.52,1.43-.32,2.27-.99,2.91-1.71.77-.87,1.02-1.86,1.02-3.13,0-1.04-.29-1.8-.79-2.55s-1.13-1.34-1.96-1.9c-.73-.5-1.45-1.13-2.33-1.57-.82-.41-1.63-.89-2.48-1.31-.81-.41-1.86-.52-2.78-1.01-.84-.44-1.47-1.29-2.28-1.88s-1.55-1.11-2.21-1.86c-.62-.7-1.31-1.4-1.75-2.34-.39-.82-.63-1.77-.83-2.81-.17-.88-.17-1.85-.17-2.92q0-1.6,0-3.19c0-1.6-.17-1.6-.17-3.19s-.08-1.59-.08-3.19.07-1.6.07-3.19-.07-1.6-.07-3.19.22-1.6.22-3.19-.06-1.6-.06-3.2.06-1.6-.11-3.19c-.44-.91-.87-1.81-1.26-2.76s-.71-1.92-1.05-2.88-.68-1.94-.98-2.9-.39-2.03-.65-3-.51-2-.73-2.96c-.24-1.04-.37-2.05-.56-3.01-.21-1.07-.52-2.05-.68-2.98-.2-1.14-.6-2.11-.73-2.97-.27-1.89-.36-1.53-.28-3.05.12.85.6,1.73.99,2.7.33.83.62,1.75,1.1,2.64.43.8.89,1.65,1.42,2.49.5.79,1,1.61,1.56,2.41s1.23,1.46,1.81,2.22.98,1.67,1.57,2.41,1.24,1.5,1.85,2.21c.57.5,1.38,1.1,2.23,1.91.63.6,1.26,1.38,2.06,2.08.69.6,1.62,1.01,2.44,1.64.74.57,1.37,1.36,2.23,1.92.78.52,1.69.91,2.57,1.41.82.46,1.75.78,2.67,1.2.86.4,1.76.74,2.71,1.09.89.33,1.8.65,2.76.93.91.26,1.83.56,2.82.77.93.19,1.87.51,2.86.64.94.13,1.94-.06,2.94,0,.95.06,1.91.08,2.92.08s2.05.2,3.06.14,2.03-.36,3.03-.47,2.05-.08,3.05-.25,2.04-.26,3.03-.49,1.98-.54,2.95-.83,1.86-.88,2.81-1.23,1.89-.74,2.82-1.15,2.03-.51,2.93-.98,1.64-1.25,2.51-1.78,1.71-1.1,2.54-1.69,1.78-1.03,2.57-1.67,1.61-1.27,2.36-1.96,1.37-1.51,2.08-2.25,1.55-1.35,2.21-2.13,1.22-1.64,1.84-2.46,1.3-1.58,1.87-2.43,1-1.78,1.54-2.66,1.1-1.72,1.58-2.62,1-1.78,1.44-2.71.53-1.99.93-2.93,1.07-1.76,1.43-2.72.59-1.95.91-2.93.52-1.97.79-2.96.51-1.97.75-2.97.48-1.98.68-2.98.2-2.02.36-3.04.31-2,.44-3.02.57-1.98.66-3.01.08-2.04.14-3.06.21-2.03.24-3.06-.03-2.04-.03-3.07-.17-2.04-.19-3.04-.08-2.04-.13-3.04.1-2.05.01-3.05-.4-2.01-.52-3.01-.04-2.06-.2-3.05-.32-2.02-.51-3.01-.82-1.91-1.05-2.89-.46-1.98-.74-2.95-.27-2.05-.59-3.01-.9-1.85-1.26-2.79-.85-1.85-1.26-2.77-.83-1.86-1.28-2.75-.64-1.97-1.15-2.84-1.23-1.64-1.79-2.47-1.29-1.57-1.91-2.37-1.02-1.8-1.69-2.55-1.45-1.44-2.17-2.14-1.37-1.53-2.14-2.18-1.69-1.14-2.51-1.74-1.7-1.1-2.57-1.63-1.69-1.13-2.59-1.59-1.9-.69-2.84-1.09-1.76-1.06-2.73-1.39-2-.35-2.99-.61-1.91-.7-2.92-.89-2.03-.07-3.05-.19-1.99-.31-3.01-.37-2.01-.17-3.04-.17ZM935.02,186.11c-1.04,0-2.08.07-3.1-.03s-2-.59-3.01-.79-1.99-.46-2.97-.76-2.05-.37-3-.79-1.73-1.12-2.62-1.65-1.75-1.05-2.58-1.68-1.75-1.1-2.51-1.83-1.22-1.66-1.89-2.46-1.22-1.61-1.81-2.48-1.35-1.55-1.86-2.47c-.49-.87-.98-1.79-1.43-2.75-.42-.91-.75-1.9-1.13-2.88-.36-.93-.47-1.98-.78-2.99-.3-.96-.76-1.89-1.02-2.91s-.35-2-.56-3.03-.43-1.98-.59-3.03-.58-1.97-.71-3.02.07-2.06-.02-3.1-.32-2.02-.38-3.07-.11-2.04-.13-3.09.13-2.04.13-3.09-.32-2.05-.28-3.05.42-2.03.49-3.02.19-2.03.3-3.02.28-2.02.43-3.01-.07-2.09.12-3.07.53-1.99.77-2.95.47-2.01.76-2.95.88-1.87,1.23-2.8.68-1.93,1.09-2.84.77-1.91,1.24-2.79,1.08-1.75,1.61-2.59,1.1-1.74,1.7-2.53,1.36-1.54,2.03-2.27,1.37-1.52,2.1-2.2,1.5-1.4,2.3-2,1.83-.93,2.69-1.44,1.62-1.29,2.53-1.71,1.93-.67,2.88-1,1.93-.64,2.92-.86,2.02-.17,3.02-.28,2-.28,3.01-.28,2.02-.07,3,.03,1.99.31,2.95.53,1.91.59,2.85.92,1.9.62,2.8,1.06,1.74.95,2.59,1.5,1.56,1.21,2.35,1.85,1.62,1.16,2.33,1.89,1.31,1.49,1.95,2.28,1.18,1.59,1.74,2.44.95,1.73,1.44,2.62,1.21,1.6,1.63,2.53.59,1.9.96,2.85.88,1.79,1.18,2.77.5,1.92.75,2.91.48,1.92.69,2.92.45,1.94.62,2.94,0,2,.13,3.01.34,1.95.43,2.97.1,1.98.16,3,.11,1.98.13,3,.03,1.98.03,3-.08,2.04-.11,3.04.14,2.05.08,3.05-.15,2.04-.25,3.04-.12,2.05-.25,3.04-.26,2.04-.43,3.02-.61,1.97-.82,2.94-.59,1.96-.85,2.92-.19,2.08-.51,3.03-.94,1.84-1.31,2.76-.52,2.02-.95,2.91-.93,1.84-1.43,2.71-1.12,1.74-1.68,2.55-1.46,1.46-2.09,2.23-1.08,1.78-1.79,2.48-1.5,1.42-2.28,2.04-1.81.98-2.65,1.52-1.73,1.04-2.64,1.48-1.74,1.11-2.7,1.44-1.98.51-2.97.73-2.01.24-3.03.34-2.01.28-3.03.28Z"/>
        <path class="cls-1" d="M1088.27,85.75c.69.73,1.18,1.6,1.73,2.4s.91,1.71,1.33,2.61.76,1.75,1.05,2.73c.28.9.59,1.82.78,2.83.17.92.5,1.87.6,2.9.1.94.23,1.92.27,2.95.04.94-.23,1.93-.23,2.96s.21,2.07.11,2.95c-.13,1.1-.67,1.97-.95,2.78-.38,1.07-.84,1.82-1.48,2.39-.74.65-1.52.91-2.58.91-1.17,0-2.17-.24-3.12-.95-.83-.61-1.62-1.42-2.38-2.39-.65-.83-1.31-1.76-1.98-2.75-.61-.9-1.17-1.9-1.83-2.86-.57-.79-1.12-1.66-1.77-2.5-.61-.78-1.3-1.54-1.98-2.34s-1.33-1.52-2.06-2.27-1.6-1.25-2.38-1.94-1.31-1.6-2.13-2.22-1.7-1.12-2.57-1.68-1.75-1.03-2.68-1.5-1.87-.78-2.83-1.16-1.87-.79-2.87-1.07-2-.3-3.02-.49-1.96-.58-3-.67-2.02.02-3.07.02-2.01.1-2.97.18c-1.02.09-1.99.28-2.93.47-1.01.2-2.01.29-2.92.6-.97.32-1.88.74-2.74,1.17-.91.46-1.81.92-2.59,1.49-.82.6-1.52,1.32-2.18,2.03s-1.15,1.61-1.68,2.44-1.02,1.68-1.37,2.61-.71,1.84-.88,2.83-.38,1.95-.38,2.96c0,1.08.05,2.13.23,3.09.19,1.04.59,2.02.98,2.93s1.01,1.78,1.62,2.61,1.32,1.51,2.09,2.23c.72.67,1.36,1.51,2.24,2.12.81.56,1.82.87,2.75,1.38.86.47,1.81.84,2.78,1.28.9.41,1.73,1.07,2.71,1.46.92.37,1.9.67,2.89,1.03.94.34,1.97.47,2.97.81s1.89.72,2.89,1.04,1.87.82,2.87,1.13,1.98.47,2.98.77c.98.3,1.9.8,2.87,1.1s2.06.28,3.02.59,1.95.64,2.91.96,1.84.94,2.79,1.28,2.02.44,2.96.81,1.86.87,2.79,1.26,1.8.98,2.72,1.42,1.81.95,2.7,1.42,1.85.87,2.71,1.4,1.66,1.18,2.49,1.77,1.84.97,2.61,1.62,1.6,1.3,2.31,2.02,1.4,1.51,2.04,2.3,1.06,1.75,1.61,2.61,1.18,1.67,1.64,2.59.78,1.87,1.14,2.85.76,1.89,1.01,2.9.24,2.01.4,3.05c.15.98.35,1.98.42,3.03.07.99-.15,2.01-.15,3.06s.07,2.05,0,3.05-.25,2.03-.42,3.02-.2,2.05-.45,3.02-.54,1.98-.89,2.93-.82,1.88-1.25,2.79-1,1.77-1.52,2.64-1.1,1.71-1.7,2.53-1.11,1.72-1.79,2.48-1.53,1.34-2.28,2.04-1.35,1.54-2.15,2.18-1.78,1-2.64,1.57-1.66,1.15-2.56,1.66-1.65,1.22-2.58,1.66-1.88.78-2.83,1.17-1.9.73-2.87,1.06-2,.39-2.99.67-1.88.86-2.88,1.08-2.04.13-3.05.31-1.98.5-3,.63-2.02.27-3.04.36-2.03.08-3.06.13-2.03.11-3.06.11-2.01-.01-3.05-.06-2-.35-3.03-.43-2.01-.19-3.03-.31-2.03-.12-3.04-.28-2.04-.13-3.05-.33-1.92-.74-2.91-.98-1.97-.49-2.95-.76-1.96-.53-2.93-.85-1.93-.66-2.87-1.02-1.91-.71-2.83-1.12-1.96-.66-2.85-1.13-1.75-1.08-2.6-1.62-1.6-1.28-2.41-1.88-1.76-1.09-2.5-1.76-1.48-1.43-2.14-2.19-1.17-1.68-1.73-2.52c-.58-.81-1.33-1.57-1.79-2.52-.43-.89-.45-1.99-.78-3-.31-.94-.73-1.88-.95-2.91-.21-.97-.36-1.98-.49-3.03s-.31-2-.37-3.05-.12-2.03-.12-3.08c0-1.14-.12-2.2,0-3.14.13-1.18.49-2.19.79-3.04.4-1.16,1.1-1.89,1.77-2.49.78-.7,1.63-1.13,2.75-1.13,1.06,0,1.89.62,2.82,1.51.7.67,1.61,1.36,2.32,2.4.58.85,1.07,1.87,1.69,2.9.5.81,1.01,1.67,1.58,2.53.53.8,1.16,1.58,1.76,2.41s1.12,1.62,1.76,2.41,1.19,1.58,1.87,2.33,1.33,1.47,2.05,2.18,1.54,1.25,2.3,1.91,1.52,1.26,2.33,1.86,1.68,1.04,2.52,1.59,1.58,1.19,2.47,1.67,1.75.92,2.67,1.33,1.83.75,2.78,1.09,1.82.8,2.79,1.07,1.95.32,2.95.52,1.92.49,2.92.63,1.96.23,2.98.29,1.97-.03,2.99-.03c1.09,0,2.13-.13,3.14-.22,1.08-.1,2.1-.28,3.1-.48,1.07-.21,2.16-.21,3.12-.53,1.03-.35,1.95-.89,2.86-1.36.96-.5,1.81-1.1,2.63-1.72s1.62-1.35,2.3-2.13,1.52-1.51,2.04-2.43.92-1.91,1.25-2.93.29-2.07.44-3.13c.15-1.01.45-2.04.45-3.12s-.03-2.12-.19-3.08c-.18-1.05-.5-2.05-.86-2.97s-.82-1.92-1.38-2.76-1.32-1.56-2.06-2.29-1.49-1.35-2.34-1.98c-.79-.58-1.76-.95-2.68-1.48-.85-.49-1.59-1.27-2.54-1.73-.89-.43-1.96-.54-2.93-.96-.91-.39-1.75-1.04-2.73-1.42-.93-.36-1.93-.59-2.91-.95s-1.94-.56-2.93-.9-1.88-.76-2.87-1.09-1.94-.59-2.92-.93-1.94-.6-2.92-.94c-.95-.32-1.92-.64-2.88-.97s-1.87-.8-2.82-1.14-1.88-.75-2.83-1.11-1.86-.81-2.8-1.19-1.97-.55-2.9-.96-1.77-1.01-2.67-1.46-1.93-.71-2.81-1.2-1.77-1.03-2.61-1.57-1.5-1.41-2.3-2.01-1.66-1.17-2.4-1.85-1.52-1.35-2.19-2.1-1.16-1.65-1.75-2.48-1.34-1.53-1.84-2.42-.77-1.85-1.17-2.81-.9-1.81-1.18-2.8-.23-1.99-.41-3.02c-.17-.97-.48-1.94-.56-2.98-.08-.98-.09-1.99-.09-3.04s.15-2.03.23-3.02.27-2.01.44-2.99.14-2.05.41-3.01.81-1.87,1.18-2.8.73-1.89,1.19-2.78.88-1.83,1.43-2.68,1.32-1.54,1.95-2.33,1.08-1.74,1.78-2.47,1.49-1.38,2.25-2.04,1.52-1.34,2.34-1.95,1.69-1.12,2.55-1.66,1.72-1.06,2.62-1.54,1.79-.94,2.72-1.36,1.81-.92,2.77-1.28,1.99-.44,2.96-.75,1.96-.47,2.94-.73,1.9-.74,2.9-.94,2.01-.27,3.01-.41,2.02-.13,3.03-.23,2-.39,3.01-.44,2.03.15,3.04.15c.94,0,1.92-.08,2.92-.04s1.92.22,2.91.29,1.93.09,2.91.19,1.95.06,2.92.2,1.93.29,2.89.47,1.85.67,2.8.88,1.99.08,2.93.34,1.83.74,2.74,1.04,1.8.78,2.69,1.14,1.91.54,2.77.96,1.8.83,2.62,1.33,1.55,1.23,2.31,1.82,1.61,1.17,2.27,1.85Z"/>
      </g>
      <g>
        <path class="cls-1" d="M60.85,131.53c.04.34.02.69.07,1.05.05.33-.02.68.04,1.01.03.23.24.44.28.66.08.43-.02.9.06,1.33.03.17-.11.36-.08.51,0,.04.18.05.19.09.04.21.25.39.29.58.04.2.12.4.17.6.02.1-.07.23-.05.33,0,.03-.07.09-.06.13.13.56.45,1.09.6,1.65.24.94.36,1.91.64,2.83s.51,1.87.84,2.78.91,1.73,1.27,2.62.51,1.89.92,2.76c.26.57.75,1.04,1.03,1.6.32.65.51,1.37.85,2.01.17.33.52.56.71.89.05.08,0,.22.05.31.29.51.38,1.13.68,1.63.7,1.16,1.41,2.34,2.18,3.45.23.35.64.58.89.92.37.52.61,1.13.99,1.64.57.74,1.2,1.44,1.79,2.16s1.36,1.29,1.99,1.98,1.02,1.6,1.67,2.27c.46.48,1.12.77,1.6,1.24.01.01.08-.04.09-.03.25.24.29.7.55.93.25.24.62.35.88.58.3.28.62.52.92.79.32.28.69.5,1.02.78.1.09.04.36.14.44.27.24.69.29.96.51.08.07.18.12.27.19.33.27.45.79.78,1.05.02.02.15-.12.17-.11,0,0,0,.01.02.02.37.3.78.54,1.16.81.5.39,1.03.72,1.54,1.08,0,0,.02.01.03.02.5.35,1.02.68,1.54,1.02.87.6,1.57,1.44,2.47,2s1.91.9,2.83,1.42c.68.38,1.25.95,1.95,1.33.38.19.96.03,1.35.22.38.19.67.54,1.05.73.23.11.38.37.61.48.56.27,1.24.25,1.8.5.03.02-.02.2,0,.21.57.25,1.24.3,1.82.55.44.19.88.37,1.33.54.3.12.57.3.87.41.04.02.05.12.09.13.21.08.34.38.56.45.35.13.78.04,1.13.17.55.2,1.03.59,1.59.77.89.3,1.89.24,2.8.51s1.8.5,2.72.74,1.81.49,2.73.69c.97.22,1.93.42,2.91.6s1.91.57,2.9.72,1.99.09,2.98.2,1.95.43,2.95.51,1.98.17,2.98.22c.92.04,1.85.47,1.97,1.29.37,1.49.3,1.5.7,2.98s.46,1.46.87,2.94.46,1.46.87,2.94.07,1.57.47,3.05.69,1.4,1.1,2.88.49,1.46.9,2.94.39,1.48.8,2.96.13,1.56.54,3.03.37,1.49.78,2.97.68,1.41,1.08,2.89.28,1.51.69,2.99.47,1.46.88,2.94.38,1.49.79,2.97.21,1.53.58,3.03c.13.87-.42,1.63-1.4,2.54-.72.66-1.52,1.42-2.51,1.98s-1.93,1.09-2.89,1.43c-1.23.43-2.39.56-3.18.49-1.82.16-1.8.34-3.6.56s-1.83,0-3.65.16c-.81-.07-1.51-.23-2.07-.75s-1.09-1.2-1.21-2.01c-.23-1.51-.1-1.53-.33-3.03s-.29-1.5-.52-3,0-1.54-.23-3.05-.45-1.47-.68-2.98-.24-1.51-.47-3.01-.24-1.5-.47-3.01-.33-1.49-.56-3,.04-1.55-.19-3.05-.2-1.51-.43-3.02-.39-1.48-.62-2.99-.29-1.5-.51-3.01c-.11-.74-.66-1.18-1.45-1.32-.95-.16-1.86-.5-2.8-.69s-1.86-.45-2.79-.67-1.87-.44-2.79-.68-1.91-.3-2.82-.57-1.81-.66-2.72-.95c-.01,0,.07,0,.05,0-.53,1.41-.72,1.34-1.25,2.76s-.42,1.46-.94,2.87-.69,1.35-1.22,2.77-.42,1.46-.94,2.87-.42,1.46-.95,2.87-.48,1.43-1.01,2.85-.83,1.3-1.36,2.72-.32,1.49-.85,2.91-.4,1.47-.92,2.88-.77,1.33-1.3,2.75-.38,1.47-.91,2.89c-.33.89-1.11,1.39-1.89,1.82s-1.58.65-2.51.45c-.98-.21-2.01-.17-2.98-.41s-1.88-.72-2.84-.98-1.96-.43-2.91-.71c-.86-.26-1.37-.94-1.74-1.68s-.51-1.52-.19-2.37c.54-1.45.29-1.55.83-3s.64-1.41,1.18-2.87.56-1.45,1.1-2.9.59-1.43,1.13-2.89.39-1.51.93-2.96.83-1.34,1.37-2.79.41-1.5.96-2.95.61-1.43,1.15-2.88.45-1.49.99-2.94.57-1.44,1.12-2.9.35-1.53.89-2.98c.26-.7.05-1.26-.61-1.61-.79-.42-1.54-.89-2.31-1.33s-1.4-1.13-2.16-1.59-1.61-.78-2.35-1.26-1.36-1.15-2.1-1.65c-.02-.01-.11.18-.13.16-1.02,1.09-1.18.94-2.18,2.04s-.75,1.33-1.76,2.43-1.11,1.01-2.11,2.1-1.16.95-2.17,2.05-.97,1.13-1.98,2.23-.85,1.24-1.86,2.34-1.16.95-2.17,2.05-.78,1.31-1.79,2.4-1.21.92-2.21,2.02-1.07,1.04-2.08,2.14-.92,1.18-1.93,2.28-.87,1.22-1.88,2.33-1.24.89-2.25,1.99c-.56.61-1.16,1.12-1.93,1.21s-1.57-.12-2.26-.57c-.82-.54-1.51-1.26-2.31-1.82s-1.62-1.1-2.41-1.69-1.69-1.02-2.46-1.63c-.7-.55-1.08-1.38-1.15-2.2s.32-1.57.93-2.23c1.06-1.16,1.02-1.19,2.08-2.35s1.14-1.08,2.21-2.24.85-1.36,1.91-2.51,1.12-1.1,2.19-2.26,1.04-1.18,2.1-2.34,1.11-1.11,2.17-2.27.91-1.3,1.97-2.45,1.28-.96,2.35-2.12,1.02-1.2,2.08-2.36.92-1.29,1.98-2.45,1.3-.94,2.37-2.1.88-1.34,1.94-2.5c.54-.59.64-1.52.07-2.09-.66-.66-1.34-1.28-1.98-1.96s-1.23-1.39-1.84-2.09-1.32-1.32-1.9-2.04-.96-1.61-1.52-2.35c-.44-.58-1.29-.49-1.93-.16-1.39.71-1.49.52-2.88,1.24s-1.34.81-2.73,1.53-1.51.47-2.91,1.19-1.26.97-2.65,1.68-1.37.76-2.76,1.47-1.42.65-2.82,1.37-1.4.7-2.79,1.41-1.45.6-2.84,1.31-1.46.58-2.85,1.3-1.26.98-2.65,1.69-1.49.52-2.89,1.23-1.38.75-2.77,1.47-1.34.82-2.74,1.54c-1.25.64-2.93.3-3.71-.86-.56-.83-.97-1.77-1.51-2.61s-1.14-1.65-1.66-2.51-1.09-1.69-1.58-2.57c-.4-.71-.24-1.55-.02-2.27s.67-1.26,1.39-1.63c1.33-.68,1.29-.75,2.62-1.43s1.37-.61,2.7-1.29,1.28-.79,2.61-1.47,1.34-.66,2.67-1.34,1.37-.6,2.7-1.28,1.26-.83,2.59-1.51,1.37-.61,2.69-1.29,1.23-.87,2.56-1.55,1.48-.39,2.81-1.07,1.22-.89,2.56-1.57,1.4-.55,2.73-1.23,1.26-.83,2.59-1.51,1.34-.67,2.67-1.36c1.33-.68,1.96-2.23,1.36-3.59-.38-.86-.86-1.68-1.21-2.55s-.45-1.84-.77-2.72-.86-1.69-1.15-2.59-.48-1.82-.73-2.73-.53-1.81-.75-2.72c0-.04.08.06.07.03-1.5.27-1.5.29-3,.58s-1.57-.05-3.07.23-1.46.52-2.96.8-1.49.34-2.99.63-1.54.06-3.04.34-1.45.54-2.95.82-1.54.09-3.04.38-1.49.33-2.99.62-1.51.25-3.01.53-1.47.48-2.97.77-1.54.09-3.04.37-1.51.26-3.01.54-1.5.3-3.01.59-1.46.52-2.97.8c-.83.12-1.57-.87-2.18-1.91-.55-.94-.92-2.02-1.06-2.75-.27-1.48-.48-2.97-.7-4.47,0-.04-.3-.02-.31-.06-.23-.95-.3-1.89-.32-2.73-.03-.97.16-1.87.59-2.65.4-.71.97-1.46,1.92-1.96.16-.08.44.18.61.16.8-.1,1.57-.36,2.37-.42.99-.08,1.97-.18,2.95-.27s1.98-.07,2.96-.22c1.01-.15,2-.47,3-.64s2.05-.13,3.06-.3,1.99-.53,3-.69,2.03-.24,3.05-.38c1.03-.14,2.06-.26,3.09-.41s2.05-.32,3.08-.46,2.08-.09,3.11-.23,2.02-.57,3.05-.72,2.05-.35,3.08-.49,2.06-.23,3.09-.38c.13-.02,2.38-.19,2.38-.22-.05-1.06.11-2.13.1-3.18s-.16-2.12-.13-3.18.2-2.12.28-3.17.14-2.12.27-3.17.51-2.07.68-3.11c.13-.8-.58-1.43-1.37-1.58-.29-.05-.29-.04-.58-.09-.02,0,.03-.24.01-.24-1.49-.28-1.5-.2-2.99-.48s-1.5-.22-2.98-.5-1.49-.26-2.98-.55-1.43-.58-2.91-.86-1.55.03-3.03-.25-1.46-.4-2.95-.68-1.52-.09-3.01-.38-1.43-.56-2.92-.84-1.51-.18-2.99-.46-1.51-.18-2.99-.47-1.49-.27-2.98-.56-1.5-.22-2.99-.51-1.43-.61-2.92-.89c-1.56-.3-2.61-1.67-2.21-3.21.24-.92.46-1.93.62-2.98.16-1,.21-2.04.38-3.04s.48-2.04.77-2.96c.26-.82.83-1.47,1.53-1.88s1.53-.58,2.37-.42c1.52.31,1.48.51,3,.82s1.54.2,3.06.51,1.53.27,3.05.59,1.5.4,3.02.71,1.57.08,3.09.39,1.5.41,3.02.72,1.53.29,3.05.6,1.5.41,3.02.72,1.5.43,3.02.74,1.58.05,3.1.36,1.52.32,3.04.63,1.54.23,3.07.55,1.49.47,3.02.78c.03,0,.06.03.09.04,0,0,0-.02,0-.02.73.2,1.35-.2,1.63-.91.3-.77.68-1.52,1.01-2.28,0-.03.17,0,.18-.03.41-.96.85-1.9,1.29-2.84s.81-1.91,1.29-2.84.89-1.88,1.41-2.79,1.04-1.8,1.59-2.69c.01-.02,0,.08.02.06-.02-.03.06-.07.03-.09-1.34-.81-1.42-.68-2.76-1.49s-1.18-1.09-2.52-1.9-1.37-.77-2.71-1.58-1.34-.82-2.68-1.63-1.43-.67-2.77-1.49-1.23-1-2.57-1.81-1.35-.8-2.7-1.61-1.45-.64-2.79-1.45-1.25-.97-2.6-1.78-1.52-.52-2.87-1.34-1.23-1.01-2.58-1.82-1.31-.87-2.66-1.68c-1.03-.62-1.73-1.54-1.91-2.63s.11-2.23.88-3.16c.6-.71,1.11-1.48,1.55-2.29s.91-1.59,1.37-2.38.92-1.54,1.6-2.19c.96-.92,2.31-1.02,3.44-.34,1.31.79,1.33.76,2.64,1.55s1.45.56,2.76,1.36,1.23.92,2.54,1.71,1.29.83,2.6,1.62,1.41.63,2.72,1.42,1.31.79,2.62,1.59,1.19.99,2.5,1.78,1.34.75,2.65,1.54,1.26.88,2.57,1.67,1.27.86,2.58,1.66,1.51.47,2.82,1.26,1.11,1.12,2.43,1.92,1.51.47,2.83,1.26c.03.02.03.31.06.29.74-.85,1.43-1.76,2.21-2.59s1.64-1.55,2.45-2.35,1.64-1.55,2.48-2.32c.01-.01-.13-.13-.12-.15-.02-.04.15-.15.13-.19-.86-1.18-.91-1.13-1.77-2.31s-1.03-1.05-1.89-2.23-.68-1.3-1.54-2.48-.84-1.19-1.7-2.37-1.06-1.03-1.92-2.21-.69-1.3-1.55-2.47-.84-1.19-1.7-2.37-.85-1.19-1.71-2.36-.9-1.15-1.76-2.32-.85-1.18-1.72-2.36-1.01-1.07-1.87-2.25-.97-1.1-1.83-2.28c-.7-.93-1-1.93-.95-2.72.06-.88.64-1.76,1.37-2.51.59-.6,1.52-.93,2.4-1.46,1.09-.66,1-.82,2.09-1.48s2.15-1.32,2.18-1.33c.4-.25.93-.16,1.38-.31.06-.02.08-.19.14-.2,1.32-.28,2.29,0,3.18.62.81.56,1.59,1.34,2.27,2.47.02.03.15-.03.17,0,.86,1.16,2.38,3.72,2.43,3.79.7.93,1.57,1.74,2.27,2.67s1.16,2.05,1.86,2.98,1.71,1.73,2.44,2.7,1.19,2.12,1.91,3.09c.65.86,1.35,1.68,2,2.54s1.32,1.7,1.96,2.57c.47.62.83,1.32,1.3,1.94s1.16,1.07,1.63,1.69c.15.21.13.23.28.43.47.63,1.38.93,2.04.5.81-.52,1.55-1.14,2.37-1.64s1.58-1.11,2.42-1.58,1.74-.83,2.59-1.28,1.65-1,2.51-1.43c.73-.35,1.3-.92,1.19-1.64-.39-1.42-.57-1.37-1-2.78s-.15-1.5-.58-2.91-.79-1.3-1.22-2.71-.19-1.48-.62-2.89-.67-1.34-1.09-2.75-.08-1.52-.51-2.93-.77-1.31-1.2-2.72-.35-1.44-.77-2.85-.28-1.46-.71-2.87-.36-1.43-.79-2.84-.71-1.33-1.14-2.74-.47-1.4-.9-2.82-.45-1.41-.84-2.84c-.09-.62.71-1.42,1.67-2.2.64-.52,1.5-.93,2.32-1.43s1.47-1.24,2.23-1.63c1.04-.53,2-.98,2.52-1.18,1.72-.35,1.79.02,3.52-.29s1.67-.59,3.38-.97c.85-.33,1.79-.25,2.6-.06s1.62.71,2.21,1.35.77,1.45.9,2.35c.22,1.53.24,1.52.46,3.05s.22,1.53.44,3.06.25,1.52.47,3.05.21,1.53.43,3.06.5,1.49.72,3.01,0,1.56.22,3.09.17,1.54.39,3.06.22,1.53.44,3.06.29,1.52.51,3.05.3,1.52.52,3.05.11,1.54.33,3.07.12,1.54.34,3.07.28,1.52.5,3.05.23,1.53.45,3.06.47,1.5.69,3.03-.08,1.58.14,3.11c.12.81-.35,1.44-1.21,1.74-.94.32-1.8.87-2.73,1.22s-1.8.85-2.71,1.24-1.9.63-2.79,1.04-1.87.72-2.75,1.16-1.72,1-2.59,1.48c-1.02.57-2.1,1.03-3.09,1.63s-1.96,1.27-2.93,1.91c-.46.31-.94.57-1.4.89-.01,0,0,.07-.01.08,0,0-.01.02-.02.03-.01,0,.19.28.17.29-.2.14-.55.05-.75.19-.2.13-.27.44-.46.6-.03.02-.13-.07-.16-.05-.03.02.04.18,0,.19-.14.1-.34.12-.48.23-.14.1-.2.28-.34.39-.39.28-.86.44-1.24.73-.12.09-.28.11-.39.2-.17.13-.17.12-.34.26-.15.12-.37.16-.52.28-.15.13-.28.28-.43.4-.28.22-.38.65-.66.88-.28.23-.68.32-.95.55-.22.19-.49.3-.71.5-.59.51-1.14,1.07-1.71,1.61-.56.52-.89,1.28-1.43,1.82-1.08,1.06-2.39,1.9-3.39,3.02-.39.44-.57,1.06-.95,1.49-.04.05-.02.14-.06.19-.21.25-.61.33-.82.58-.12.14-.2.32-.32.47-.08.1-.04.31-.12.42-.08.1-.31.07-.39.16-.32.39-.56.85-.86,1.25-.36.48-.73.94-1.07,1.43-.15.21-.45.31-.61.52-.1.14.05.47-.04.62-.11.15-.3.24-.41.4-.32.45-.58.93-.88,1.39-.36.54-.65,1.13-.99,1.69-.34.56-.91.98-1.25,1.56-.6,1.02-1.09,2.1-1.64,3.14s-1.18,2.06-1.67,3.13c-.41.88-.85,1.76-1.21,2.66s-.51,1.89-.84,2.8-.69,1.82-.98,2.75-.68,1.83-.92,2.77-.56,1.87-.77,2.82c-.23,1.04-.19,2.13-.37,3.18s-.57,2.07-.69,3.12-.12,2.13-.2,3.19-.19,2.12-.21,3.19.2,2.12.24,3.19c.02.59.2,1.18.23,1.78,0,.03-.28.07-.28.1.04.56.05,1.15.11,1.71.04.52.04,1.06.1,1.59,0,.1.22.16.24.25.03.23.19.46.22.69Z"/>
        <path class="cls-1" d="M84.93,70.97c-.59.51-1.16,1.06-1.73,1.59.57-.53,1.14-1.08,1.73-1.59Z"/>
        <path class="cls-1" d="M88.46,68.04c-.11.09-.26.13-.37.22-.15.11-.26.33-.41.45.15-.12.32-.25.47-.37.17-.14.14-.17.31-.3Z"/>
        <path class="cls-1" d="M90.33,66.49c-.12.1-.17.39-.29.49-.01,0-.07-.05-.09-.05.13-.11.24-.34.37-.44Z"/>
        <path class="cls-1" d="M90.88,66.23s-.09.03-.12.06c-.08.06-.1.21-.18.28-.06.03-.16.02-.22.06.14-.11.32-.15.47-.25.03-.02.02-.13.05-.15Z"/>
        <path class="cls-1" d="M73.21,83.92s0,.13-.03.17c-.08.1-.35.06-.42.17.1-.14.35-.2.45-.34Z"/>
        <path class="cls-1" d="M76.65,79.74c-.21.25-.4.51-.61.76.08-.11,0-.35.08-.46.12-.15.4-.16.52-.3Z"/>
        <path class="cls-1" d="M92.28,65.3s-.15-.07-.17-.05c0,0,.15.14.15.14.01,0,0-.08.02-.08Z"/>
        <path class="cls-1" d="M115.47,85.22c-.95.36-1.93.61-2.83,1.03s-1.73,1.02-2.6,1.52-1.86.82-2.69,1.38-1.58,1.27-2.35,1.89-1.63,1.21-2.35,1.9-1.37,1.48-2.05,2.23-1.41,1.45-2.02,2.25-.9,1.83-1.45,2.67-1.23,1.59-1.72,2.47-1.07,1.71-1.49,2.63-.66,1.9-1.01,2.85-.73,1.88-1,2.85-.3,1.99-.49,2.98-.42,1.96-.53,2.96-.13,2-.17,3,.02,1.99.07,3,.14,1.99.27,2.99-.04,2.04.17,3.03c.21,1,.78,1.9,1.05,2.86s.31,2.04.66,2.98.72,1.91,1.14,2.82,1.22,1.65,1.72,2.53.94,1.79,1.51,2.62.92,1.84,1.55,2.63,1.37,1.51,2.06,2.25,1.53,1.34,2.28,2.02,1.6,1.23,2.4,1.85,1.45,1.45,2.3,2,1.83.88,2.72,1.37,1.75,1.02,2.67,1.44,1.78,1.01,2.73,1.36,2.04.27,3.01.53,1.92.59,2.92.78,1.97.48,2.98.59,2.02-.07,3.04-.03,2.02.33,3.03.28,1.99-.35,3-.48,1.98-.34,2.97-.55,2-.28,2.98-.57,1.89-.71,2.84-1.07c.95-.36,1.83-.82,2.74-1.24s1.89-.72,2.76-1.21,1.6-1.23,2.42-1.8,1.81-.93,2.59-1.56,1.43-1.42,2.16-2.11,1.41-1.43,2.08-2.17,1.39-1.46,2-2.25,1.06-1.7,1.61-2.54,1.24-1.59,1.73-2.47,1.06-1.73,1.48-2.64.44-1.99.78-2.94,1.03-1.78,1.3-2.75.23-2.01.43-3,.55-1.95.66-2.95.06-2.01.1-3.02-.01-2-.06-3.01-.29-1.98-.42-2.98-.19-1.99-.39-2.98c-.21-1-.52-1.96-.8-2.92s-.45-1.98-.8-2.92-.59-1.96-1.01-2.87-1.06-1.74-1.56-2.62-.96-1.79-1.53-2.63-1.37-1.5-2-2.29-1.23-1.6-1.92-2.33-1.29-1.58-2.03-2.25-1.58-1.27-2.38-1.89-1.71-1.07-2.56-1.62-1.63-1.19-2.52-1.68-1.78-.96-2.7-1.38-1.8-.95-2.75-1.29-1.91-.71-2.89-.98-2-.38-2.99-.57-1.99-.4-3-.51-2.02-.07-3.04-.1-2.02-.06-3.04-.01-1.99.38-3,.51-2.01.15-3.01.36-2.01.28-2.99.56-1.84.86-2.79,1.22ZM146.59,119.52c-.44.19-.53-.01-.97.18-.94.43-1.82.99-2.69,1.52s-1.73,1.13-2.53,1.77-1.52,1.39-2.23,2.13-1.35,1.54-1.97,2.36-1.25,1.63-1.77,2.52-1.15,1.74-1.55,2.69-.53,2-.81,3-.57,1.98-.72,3-.27,2.04-.29,3.08.14,2.05.25,3.08c-.16-1.5-.35-2.95-.76-4.37-.28-.96-.59-1.91-.98-2.81s-.98-1.73-1.47-2.58-.91-1.78-1.5-2.56-1.41-1.4-2.09-2.11-1.3-1.49-2.07-2.12-1.54-1.25-2.37-1.78-1.82-.77-2.71-1.2-1.76-.87-2.69-1.19-1.86-.6-2.84-.81c-.66-.11-.35-.02-.7-.09-1.14-.2-2.28-.52-3.46-.57s-2.32.17-3.5.3c1.5-.14,2.87-.69,4.29-1.1,1.01-.29,2.05-.45,3-.86s1.9-.87,2.79-1.4,1.59-1.34,2.41-1.98,1.69-1.21,2.42-1.94,1.55-1.41,2.19-2.24,1.19-1.72,1.72-2.62.84-1.91,1.25-2.87,1.02-1.85,1.3-2.86.3-2.07.45-3.11.22-2.06.24-3.11-.02-2.06-.12-3.11c.16,1.5.37,2.94.78,4.35.29,1.01.65,2,1.06,2.95s1.04,1.82,1.57,2.71,1.18,1.71,1.82,2.52,1.18,1.73,1.92,2.47,1.61,1.33,2.43,1.96,1.74,1.13,2.64,1.65,1.83.95,2.79,1.36,1.92.74,2.92,1.03,1.94.84,2.98.99,2.08.21,3.13.23,2.06-.33,3.11-.44c-1.18.12-2.26.71-3.37.99s-2.25.55-3.31,1Z"/>
        <path class="cls-1" d="M580.02,118.41c-.93.35-1.89.6-2.74,1.08s-1.65,1.08-2.43,1.67-1.46,1.3-2.15,2-1.5,1.3-2.09,2.09-1.24,1.57-1.71,2.43-.79,1.82-1.14,2.75-.53,1.9-.75,2.86-.55,1.91-.63,2.9.1,1.97.16,2.96.23,1.93.43,2.91c.21,1.01.21,2.06.55,3s.87,1.86,1.33,2.74,1.01,1.77,1.61,2.58,1.21,1.66,1.91,2.37,1.63,1.22,2.44,1.82,1.58,1.28,2.47,1.76,1.81.94,2.75,1.29,1.94.58,2.93.79,1.99.28,3.01.35,2.01.1,3.02.02,1.98-.3,2.97-.53,1.96-.4,2.93-.77c.93-.35,1.73-.95,2.58-1.42s1.89-.71,2.67-1.3,1.49-1.32,2.18-2.02,1.38-1.43,1.97-2.22,1.2-1.6,1.67-2.46.66-1.88,1.01-2.8.51-1.88.73-2.85.43-1.9.51-2.88.34-1.96.28-2.95-.24-1.96-.44-2.93c-.21-1.01-.48-1.99-.81-2.93s-.86-1.85-1.33-2.73-.92-1.82-1.51-2.63-1.24-1.62-1.95-2.34-1.54-1.33-2.34-1.94-1.62-1.24-2.5-1.73-1.88-.76-2.83-1.12-1.9-.68-2.89-.9-1.98-.47-2.99-.54-2.01.23-3.02.3-2,.1-3,.32-1.89.61-2.85.97ZM596.97,137.11c-.24.1-.33-.1-.57,0-.86.39-1.67.87-2.42,1.42s-1.51,1.14-2.13,1.84-1.04,1.56-1.5,2.37-.73,1.69-1.01,2.58-.56,1.75-.66,2.69-.13,1.83-.03,2.78c-.09-.81-.15-1.62-.38-2.4-.27-.94-.75-1.82-1.2-2.66s-.98-1.7-1.61-2.42-1.53-1.18-2.31-1.76-1.53-1.15-2.41-1.55-1.77-.72-2.73-.92c-.36-.06-.17-.16-.36-.19-1.22-.22-2.51-.22-3.82-.08.82-.08,1.54-.4,2.32-.63,1.01-.29,2.01-.55,2.91-1.06s1.68-1.21,2.43-1.91,1.52-1.42,2.1-2.28.95-1.82,1.32-2.8.84-1.92.98-2.96.19-2.08.09-3.14c.09.81-.02,1.63.2,2.4.29,1.01.94,1.86,1.45,2.76s1.09,1.74,1.79,2.5,1.43,1.49,2.29,2.07,1.79,1.02,2.77,1.38,1.97.54,3.01.67,2.04.4,3.1.29c-1.3.13-2.47.51-3.61.99Z"/>
      </g>
      <path class="cls-1" d="M1125.77,215.48c-2.6-1.4-4.58-3.42-5.94-6.07-1.36-2.65-2.04-5.84-2.04-9.57s.68-6.92,2.04-9.57c1.36-2.65,3.33-4.67,5.93-6.06,2.59-1.39,5.73-2.08,9.4-2.08s6.81.69,9.4,2.08c2.59,1.39,4.57,3.41,5.93,6.06,1.36,2.65,2.04,5.84,2.04,9.57s-.68,6.92-2.04,9.57c-1.36,2.65-3.34,4.67-5.94,6.07-2.6,1.4-5.73,2.1-9.39,2.1s-6.78-.7-9.39-2.1ZM1141.96,211.32c1.89-1.03,3.34-2.53,4.35-4.48,1-1.95,1.51-4.29,1.51-7s-.5-5.19-1.49-7.18c-1-1.99-2.44-3.51-4.33-4.55-1.89-1.04-4.17-1.56-6.83-1.56s-4.94.52-6.83,1.56c-1.89,1.04-3.34,2.56-4.33,4.55-1,1.99-1.49,4.38-1.49,7.18s.5,5.08,1.49,7.03c.99,1.95,2.44,3.44,4.33,4.46,1.89,1.02,4.17,1.54,6.83,1.54s4.91-.52,6.8-1.55ZM1128.27,190.83h4.33v17.88h-4.33v-17.88ZM1130.97,199.47h5.43c.65,0,1.17-.21,1.55-.62.38-.41.57-1,.57-1.77s-.19-1.38-.57-1.78c-.38-.4-.9-.6-1.55-.6h-5.43v-3.88h5.31c2.12,0,3.75.57,4.88,1.71,1.13,1.14,1.69,2.66,1.69,4.55s-.57,3.39-1.72,4.54-2.77,1.72-4.85,1.72h-5.31v-3.88ZM1135.1,201.7l3.65-1.89,4.56,8.87h-4.82l-3.39-6.98Z"/>
      <path class="cls-1" d="M429.58,198.93c-.62.04-1.28.02-2-.04,3.47-.3,4.98-.14,2,.04Z"/>
    </g>
  </g>
</svg>